<svg xmlns="http://www.w3.org/2000/svg" width="256" height="256" viewBox="0 0 64 64" shape-rendering="crispEdges">
  <!-- 3SEC SURVIVE - HD Pixel Character: ACTION / WORKING -->
  <!-- 64x64 Post-apocalyptic gas mask survivor, arms forward with wrench -->

  <!-- === HOOD === -->
  <!-- Hood top -->
  <rect x="24" y="5" width="16" height="1" fill="#3a4a3a"/>
  <rect x="22" y="6" width="20" height="1" fill="#4a5648"/>
  <rect x="21" y="7" width="22" height="1" fill="#4a5648"/>
  <rect x="20" y="8" width="24" height="1" fill="#5a7a5c"/>
  <rect x="19" y="9" width="26" height="1" fill="#5a7a5c"/>
  <rect x="19" y="10" width="26" height="1" fill="#5a7a5c"/>
  <!-- Hood shadow folds -->
  <rect x="22" y="7" width="2" height="1" fill="#3a4a3a"/>
  <rect x="38" y="7" width="2" height="1" fill="#3a4a3a"/>
  <rect x="20" y="9" width="1" height="2" fill="#4a5648"/>
  <rect x="43" y="9" width="2" height="2" fill="#4a5648"/>
  <!-- Hood frayed edges -->
  <rect x="19" y="10" width="1" height="1" fill="#3a4a3a"/>
  <rect x="44" y="10" width="1" height="1" fill="#3a4a3a"/>
  <rect x="20" y="8" width="1" height="1" fill="#4a5648"/>
  <rect x="43" y="8" width="1" height="1" fill="#4a5648"/>

  <!-- === HEAD / MASK === -->
  <rect x="21" y="11" width="22" height="1" fill="#8cc890"/>
  <rect x="20" y="12" width="24" height="1" fill="#8cc890"/>
  <rect x="20" y="13" width="24" height="1" fill="#8cc890"/>
  <rect x="20" y="14" width="24" height="1" fill="#7ab87e"/>
  <rect x="20" y="15" width="24" height="1" fill="#7ab87e"/>
  <!-- Head highlight -->
  <rect x="26" y="11" width="8" height="1" fill="#a0dca4"/>

  <!-- === GOGGLES === -->
  <!-- Left goggle frame -->
  <rect x="21" y="12" width="9" height="1" fill="#706e68"/>
  <rect x="21" y="15" width="9" height="1" fill="#504e48"/>
  <rect x="21" y="12" width="1" height="4" fill="#706e68"/>
  <rect x="29" y="12" width="1" height="4" fill="#504e48"/>
  <!-- Left lens -->
  <rect x="22" y="13" width="7" height="2" fill="#0c140c"/>
  <!-- Left lens reflection -->
  <rect x="23" y="13" width="2" height="1" fill="#1a2a1a"/>
  <!-- Left eye glow (fully bright - focused) -->
  <rect x="24" y="13" width="3" height="2" fill="#a0dca4"/>
  <rect x="24" y="13" width="2" height="1" fill="#c0f0c4"/>
  <rect x="26" y="13" width="1" height="1" fill="#d8ffd8"/>

  <!-- Right goggle frame -->
  <rect x="34" y="12" width="9" height="1" fill="#706e68"/>
  <rect x="34" y="15" width="9" height="1" fill="#504e48"/>
  <rect x="34" y="12" width="1" height="4" fill="#706e68"/>
  <rect x="42" y="12" width="1" height="4" fill="#504e48"/>
  <!-- Right lens -->
  <rect x="35" y="13" width="7" height="2" fill="#0c140c"/>
  <!-- Right lens reflection -->
  <rect x="36" y="13" width="2" height="1" fill="#1a2a1a"/>
  <!-- Right eye glow (fully bright - focused) -->
  <rect x="37" y="13" width="3" height="2" fill="#a0dca4"/>
  <rect x="37" y="13" width="2" height="1" fill="#c0f0c4"/>
  <rect x="39" y="13" width="1" height="1" fill="#d8ffd8"/>

  <!-- Nose bridge (between goggles) -->
  <rect x="30" y="12" width="4" height="3" fill="#8cc890"/>
  <rect x="30" y="13" width="4" height="1" fill="#7ab87e"/>
  <!-- Goggle strap -->
  <rect x="20" y="13" width="1" height="2" fill="#504e48"/>
  <rect x="43" y="13" width="1" height="2" fill="#504e48"/>

  <!-- === RESPIRATOR === -->
  <rect x="23" y="16" width="18" height="1" fill="#706e68"/>
  <rect x="22" y="17" width="20" height="1" fill="#606058"/>
  <rect x="22" y="18" width="20" height="1" fill="#606058"/>
  <rect x="23" y="19" width="18" height="1" fill="#606058"/>
  <rect x="24" y="20" width="16" height="1" fill="#504e48"/>
  <rect x="25" y="21" width="14" height="1" fill="#4a4a46"/>
  <!-- Respirator grille lines -->
  <rect x="24" y="17" width="1" height="3" fill="#4a4a46"/>
  <rect x="27" y="17" width="1" height="3" fill="#4a4a46"/>
  <rect x="30" y="17" width="1" height="3" fill="#4a4a46"/>
  <rect x="33" y="17" width="1" height="3" fill="#4a4a46"/>
  <rect x="36" y="17" width="1" height="3" fill="#4a4a46"/>
  <rect x="39" y="17" width="1" height="3" fill="#4a4a46"/>
  <!-- Respirator highlight -->
  <rect x="25" y="17" width="2" height="1" fill="#706e68"/>
  <rect x="31" y="17" width="2" height="1" fill="#706e68"/>
  <rect x="37" y="17" width="2" height="1" fill="#706e68"/>
  <!-- Filter canisters (sides) -->
  <rect x="20" y="16" width="3" height="4" fill="#9a9690"/>
  <rect x="41" y="16" width="3" height="4" fill="#9a9690"/>
  <rect x="20" y="16" width="3" height="1" fill="#c0bab0"/>
  <rect x="41" y="16" width="3" height="1" fill="#c0bab0"/>
  <rect x="20" y="19" width="3" height="1" fill="#706e68"/>
  <rect x="41" y="19" width="3" height="1" fill="#706e68"/>
  <!-- Canister rings -->
  <rect x="20" y="17" width="3" height="1" fill="#c0bab0"/>
  <rect x="41" y="17" width="3" height="1" fill="#c0bab0"/>

  <!-- === NECK === -->
  <rect x="27" y="22" width="10" height="2" fill="#5a7a5c"/>
  <rect x="28" y="22" width="3" height="1" fill="#4a5648"/>

  <!-- === BACKPACK (behind body, visible edges) === -->
  <rect x="15" y="23" width="3" height="10" fill="#3a4a3a"/>
  <rect x="46" y="23" width="3" height="10" fill="#3a4a3a"/>
  <!-- Backpack straps -->
  <rect x="18" y="24" width="1" height="8" fill="#504e48"/>
  <rect x="45" y="24" width="1" height="8" fill="#504e48"/>
  <!-- Backpack top -->
  <rect x="16" y="22" width="2" height="1" fill="#3a4a3a"/>
  <rect x="46" y="22" width="2" height="1" fill="#3a4a3a"/>

  <!-- === BODY / TACTICAL VEST (slight crouch - shifted down 1px) === -->
  <rect x="18" y="24" width="28" height="1" fill="#5a7a5c"/>
  <rect x="17" y="25" width="30" height="1" fill="#5a7a5c"/>
  <rect x="17" y="26" width="30" height="1" fill="#4a5648"/>
  <rect x="17" y="27" width="30" height="1" fill="#4a5648"/>
  <rect x="17" y="28" width="30" height="1" fill="#4a5648"/>
  <rect x="17" y="29" width="30" height="1" fill="#4a5648"/>
  <rect x="18" y="30" width="28" height="1" fill="#4a5648"/>
  <rect x="18" y="31" width="28" height="1" fill="#3a4a3a"/>
  <rect x="19" y="32" width="26" height="1" fill="#3a4a3a"/>
  <!-- Vest shoulder pads -->
  <rect x="17" y="24" width="3" height="2" fill="#606058"/>
  <rect x="44" y="24" width="3" height="2" fill="#606058"/>
  <!-- Center zipper -->
  <rect x="31" y="24" width="2" height="9" fill="#2a322a"/>
  <rect x="31" y="25" width="1" height="1" fill="#4a4a46"/>
  <rect x="31" y="27" width="1" height="1" fill="#4a4a46"/>
  <rect x="31" y="29" width="1" height="1" fill="#4a4a46"/>
  <!-- Left chest pocket -->
  <rect x="20" y="26" width="6" height="4" fill="#2a322a"/>
  <rect x="20" y="26" width="6" height="1" fill="#3a4a3a"/>
  <rect x="22" y="27" width="2" height="1" fill="#4a5648"/>
  <!-- Right chest pocket -->
  <rect x="38" y="26" width="6" height="4" fill="#2a322a"/>
  <rect x="38" y="26" width="6" height="1" fill="#3a4a3a"/>
  <rect x="40" y="27" width="2" height="1" fill="#4a5648"/>
  <!-- Pocket flaps -->
  <rect x="20" y="26" width="6" height="1" fill="#4a5648"/>
  <rect x="38" y="26" width="6" height="1" fill="#4a5648"/>
  <!-- MOLLE webbing on vest -->
  <rect x="20" y="30" width="1" height="2" fill="#2a322a"/>
  <rect x="22" y="30" width="1" height="2" fill="#2a322a"/>
  <rect x="24" y="30" width="1" height="2" fill="#2a322a"/>
  <rect x="39" y="30" width="1" height="2" fill="#2a322a"/>
  <rect x="41" y="30" width="1" height="2" fill="#2a322a"/>
  <rect x="43" y="30" width="1" height="2" fill="#2a322a"/>

  <!-- === BELT === -->
  <rect x="19" y="33" width="26" height="2" fill="#706e68"/>
  <rect x="19" y="33" width="26" height="1" fill="#9a9690"/>
  <!-- Belt buckle -->
  <rect x="30" y="33" width="4" height="2" fill="#c0bab0"/>
  <rect x="31" y="33" width="2" height="2" fill="#9a9690"/>
  <!-- Belt pouches -->
  <rect x="21" y="34" width="4" height="1" fill="#504e48"/>
  <rect x="39" y="34" width="4" height="1" fill="#504e48"/>

  <!-- === LEFT ARM (extended forward holding wrench) === -->
  <!-- Upper arm angled forward-down -->
  <rect x="13" y="24" width="4" height="2" fill="#5a7a5c"/>
  <rect x="11" y="26" width="4" height="2" fill="#5a7a5c"/>
  <rect x="9" y="28" width="4" height="2" fill="#4a5648"/>
  <!-- Left forearm wrap -->
  <rect x="9" y="29" width="4" height="1" fill="#606058"/>
  <!-- Forearm extending forward -->
  <rect x="7" y="30" width="4" height="2" fill="#4a5648"/>
  <!-- Left glove -->
  <rect x="5" y="31" width="4" height="2" fill="#2a322a"/>
  <rect x="5" y="31" width="4" height="1" fill="#3a4a3a"/>
  <rect x="5" y="33" width="3" height="1" fill="#1a1a1c"/>

  <!-- === WRENCH (in left hand) === -->
  <!-- Wrench handle -->
  <rect x="2" y="30" width="4" height="1" fill="#9a9690"/>
  <rect x="2" y="31" width="4" height="1" fill="#706e68"/>
  <!-- Wrench jaw (open end, top) -->
  <rect x="0" y="28" width="2" height="1" fill="#c0bab0"/>
  <rect x="0" y="29" width="3" height="1" fill="#9a9690"/>
  <!-- Wrench jaw (open end, bottom) -->
  <rect x="0" y="32" width="3" height="1" fill="#9a9690"/>
  <rect x="0" y="33" width="2" height="1" fill="#c0bab0"/>
  <!-- Wrench jaw gap -->
  <rect x="0" y="30" width="2" height="2" fill="#0a0610"/>

  <!-- === WORK SPARKS === -->
  <rect x="1" y="27" width="1" height="1" fill="#ffb800" opacity="1.0"/>
  <rect x="3" y="26" width="1" height="1" fill="#ffb800" opacity="0.7"/>
  <rect x="0" y="25" width="1" height="1" fill="#ffb800" opacity="0.4"/>

  <!-- === RIGHT ARM (extended forward, assisting) === -->
  <!-- Upper arm angled forward-down -->
  <rect x="47" y="24" width="4" height="2" fill="#5a7a5c"/>
  <rect x="49" y="26" width="4" height="2" fill="#5a7a5c"/>
  <rect x="51" y="28" width="4" height="2" fill="#4a5648"/>
  <!-- Right forearm wrap -->
  <rect x="51" y="29" width="4" height="1" fill="#606058"/>
  <!-- Forearm extending forward -->
  <rect x="53" y="30" width="4" height="2" fill="#4a5648"/>
  <!-- Right glove -->
  <rect x="55" y="31" width="4" height="2" fill="#2a322a"/>
  <rect x="55" y="31" width="4" height="1" fill="#3a4a3a"/>
  <rect x="56" y="33" width="3" height="1" fill="#1a1a1c"/>

  <!-- === LEGS (slight crouch - knees bent, wider stance) === -->
  <!-- Left leg (angled slightly outward) -->
  <rect x="20" y="35" width="8" height="2" fill="#2a322a"/>
  <rect x="19" y="37" width="8" height="2" fill="#1a1a1c"/>
  <rect x="18" y="39" width="8" height="3" fill="#1a1a1c"/>
  <rect x="18" y="42" width="8" height="2" fill="#1a1a1c"/>
  <!-- Left knee pad -->
  <rect x="19" y="39" width="6" height="2" fill="#4a4a46"/>
  <rect x="20" y="40" width="4" height="1" fill="#606058"/>

  <!-- Right leg (angled slightly outward) -->
  <rect x="36" y="35" width="8" height="2" fill="#2a322a"/>
  <rect x="37" y="37" width="8" height="2" fill="#1a1a1c"/>
  <rect x="38" y="39" width="8" height="3" fill="#1a1a1c"/>
  <rect x="38" y="42" width="8" height="2" fill="#1a1a1c"/>
  <!-- Right knee pad -->
  <rect x="39" y="39" width="6" height="2" fill="#4a4a46"/>
  <rect x="40" y="40" width="4" height="1" fill="#606058"/>

  <!-- Leg gap shadow (wider for crouch stance) -->
  <rect x="28" y="35" width="8" height="8" fill="#0a0610"/>

  <!-- === BOOTS (wider stance for crouch) === -->
  <!-- Left boot -->
  <rect x="16" y="44" width="10" height="2" fill="#1a1a1c"/>
  <rect x="15" y="46" width="11" height="2" fill="#121214"/>
  <rect x="15" y="48" width="11" height="2" fill="#0a0a0c"/>
  <!-- Boot details -->
  <rect x="18" y="44" width="1" height="4" fill="#2a2a2c"/>
  <rect x="21" y="44" width="1" height="4" fill="#2a2a2c"/>
  <rect x="15" y="46" width="11" height="1" fill="#2a2a2c"/>
  <!-- Boot toe cap -->
  <rect x="15" y="48" width="3" height="1" fill="#1a1a1c"/>
  <!-- Boot sole -->
  <rect x="14" y="50" width="12" height="1" fill="#0a0a0c"/>

  <!-- Right boot -->
  <rect x="38" y="44" width="10" height="2" fill="#1a1a1c"/>
  <rect x="38" y="46" width="11" height="2" fill="#121214"/>
  <rect x="38" y="48" width="11" height="2" fill="#0a0a0c"/>
  <!-- Boot details -->
  <rect x="41" y="44" width="1" height="4" fill="#2a2a2c"/>
  <rect x="44" y="44" width="1" height="4" fill="#2a2a2c"/>
  <rect x="38" y="46" width="11" height="1" fill="#2a2a2c"/>
  <!-- Boot toe cap -->
  <rect x="46" y="48" width="3" height="1" fill="#1a1a1c"/>
  <!-- Boot sole -->
  <rect x="38" y="50" width="12" height="1" fill="#0a0a0c"/>

  <!-- === SUBTLE GLOW AURA (both eyes fully bright) === -->
  <rect x="23" y="13" width="1" height="1" fill="#c0f0c4" opacity="0.2"/>
  <rect x="40" y="13" width="1" height="1" fill="#c0f0c4" opacity="0.2"/>
  <rect x="23" y="12" width="1" height="1" fill="#a0dca4" opacity="0.1"/>
  <rect x="40" y="12" width="1" height="1" fill="#a0dca4" opacity="0.1"/>
</svg>