<svg xmlns="http://www.w3.org/2000/svg" width="256" height="256" viewBox="0 0 64 64" shape-rendering="crispEdges">
  <!-- 3SEC SURVIVE - HD Pixel Character: RUN -->
  <!-- 64x64 Post-apocalyptic gas mask survivor, running pose -->
  <!-- Body leaning ~15deg forward, arms/legs in mid-stride -->

  <!-- === MOTION LINES (behind character) === -->
  <rect x="2" y="22" width="8" height="1" fill="#a0dca4" opacity="0.30"/>
  <rect x="4" y="28" width="7" height="1" fill="#a0dca4" opacity="0.20"/>
  <rect x="3" y="35" width="6" height="1" fill="#a0dca4" opacity="0.10"/>

  <!-- === BACKPACK (behind body, visible due to lean) === -->
  <rect x="14" y="19" width="4" height="11" fill="#3a4a3a"/>
  <rect x="14" y="19" width="4" height="1" fill="#4a5648"/>
  <rect x="14" y="29" width="4" height="1" fill="#2a322a"/>
  <!-- Backpack side pocket -->
  <rect x="14" y="22" width="2" height="3" fill="#2a322a"/>
  <rect x="14" y="22" width="2" height="1" fill="#3a4a3a"/>
  <!-- Backpack straps -->
  <rect x="17" y="20" width="1" height="9" fill="#504e48"/>
  <rect x="18" y="21" width="1" height="4" fill="#504e48"/>

  <!-- === BACK ARM (left arm, swinging backward) === -->
  <!-- Upper arm -->
  <rect x="14" y="22" width="4" height="2" fill="#5a7a5c"/>
  <rect x="13" y="24" width="4" height="3" fill="#5a7a5c"/>
  <rect x="12" y="27" width="4" height="2" fill="#4a5648"/>
  <!-- Forearm wrap -->
  <rect x="12" y="28" width="4" height="1" fill="#606058"/>
  <!-- Lower arm angled back -->
  <rect x="11" y="29" width="4" height="2" fill="#4a5648"/>
  <rect x="10" y="31" width="4" height="2" fill="#4a5648"/>
  <!-- Glove -->
  <rect x="9" y="33" width="4" height="2" fill="#2a322a"/>
  <rect x="9" y="33" width="4" height="1" fill="#3a4a3a"/>
  <rect x="10" y="35" width="3" height="1" fill="#1a1a1c"/>

  <!-- === BACK LEG (right leg, extended backward) === -->
  <!-- Upper thigh -->
  <rect x="28" y="35" width="7" height="2" fill="#2a322a"/>
  <rect x="26" y="37" width="7" height="2" fill="#1a1a1c"/>
  <!-- Lower leg angled back -->
  <rect x="24" y="39" width="7" height="2" fill="#1a1a1c"/>
  <rect x="22" y="41" width="7" height="2" fill="#1a1a1c"/>
  <!-- Knee pad -->
  <rect x="25" y="39" width="5" height="2" fill="#4a4a46"/>
  <rect x="26" y="40" width="3" height="1" fill="#606058"/>
  <!-- Boot -->
  <rect x="20" y="43" width="7" height="2" fill="#1a1a1c"/>
  <rect x="19" y="45" width="7" height="2" fill="#121214"/>
  <rect x="18" y="47" width="7" height="1" fill="#0a0a0c"/>
  <!-- Boot laces -->
  <rect x="22" y="43" width="1" height="3" fill="#2a2a2c"/>
  <rect x="24" y="43" width="1" height="3" fill="#2a2a2c"/>
  <rect x="19" y="45" width="7" height="1" fill="#2a2a2c"/>
  <!-- Boot sole -->
  <rect x="17" y="48" width="8" height="1" fill="#0a0a0c"/>

  <!-- === HOOD === -->
  <rect x="26" y="4" width="14" height="1" fill="#3a4a3a"/>
  <rect x="24" y="5" width="18" height="1" fill="#4a5648"/>
  <rect x="23" y="6" width="20" height="1" fill="#4a5648"/>
  <rect x="22" y="7" width="22" height="1" fill="#5a7a5c"/>
  <rect x="21" y="8" width="24" height="1" fill="#5a7a5c"/>
  <rect x="21" y="9" width="24" height="1" fill="#5a7a5c"/>
  <!-- Hood shadow folds -->
  <rect x="24" y="6" width="2" height="1" fill="#3a4a3a"/>
  <rect x="38" y="6" width="2" height="1" fill="#3a4a3a"/>
  <rect x="22" y="8" width="1" height="2" fill="#4a5648"/>
  <rect x="43" y="8" width="2" height="2" fill="#4a5648"/>
  <!-- Hood frayed edges -->
  <rect x="21" y="9" width="1" height="1" fill="#3a4a3a"/>
  <rect x="44" y="9" width="1" height="1" fill="#3a4a3a"/>
  <rect x="22" y="7" width="1" height="1" fill="#4a5648"/>
  <rect x="43" y="7" width="1" height="1" fill="#4a5648"/>

  <!-- === HEAD / MASK === -->
  <rect x="23" y="10" width="20" height="1" fill="#8cc890"/>
  <rect x="22" y="11" width="22" height="1" fill="#8cc890"/>
  <rect x="22" y="12" width="22" height="1" fill="#8cc890"/>
  <rect x="22" y="13" width="22" height="1" fill="#7ab87e"/>
  <rect x="22" y="14" width="22" height="1" fill="#7ab87e"/>
  <!-- Head highlight -->
  <rect x="28" y="10" width="8" height="1" fill="#a0dca4"/>

  <!-- === GOGGLES === -->
  <!-- Left goggle frame -->
  <rect x="23" y="11" width="9" height="1" fill="#706e68"/>
  <rect x="23" y="14" width="9" height="1" fill="#504e48"/>
  <rect x="23" y="11" width="1" height="4" fill="#706e68"/>
  <rect x="31" y="11" width="1" height="4" fill="#504e48"/>
  <!-- Left lens -->
  <rect x="24" y="12" width="7" height="2" fill="#0c140c"/>
  <!-- Left lens reflection -->
  <rect x="25" y="12" width="2" height="1" fill="#1a2a1a"/>
  <!-- Left eye glow -->
  <rect x="26" y="12" width="2" height="2" fill="#a0dca4"/>
  <rect x="26" y="12" width="1" height="1" fill="#c0f0c4"/>
  <rect x="28" y="13" width="1" height="1" fill="#5a9a5e"/>

  <!-- Right goggle frame -->
  <rect x="35" y="11" width="9" height="1" fill="#706e68"/>
  <rect x="35" y="14" width="9" height="1" fill="#504e48"/>
  <rect x="35" y="11" width="1" height="4" fill="#706e68"/>
  <rect x="43" y="11" width="1" height="4" fill="#504e48"/>
  <!-- Right lens -->
  <rect x="36" y="12" width="7" height="2" fill="#0c140c"/>
  <!-- Right lens reflection -->
  <rect x="37" y="12" width="2" height="1" fill="#1a2a1a"/>
  <!-- Right eye glow -->
  <rect x="38" y="12" width="2" height="2" fill="#a0dca4"/>
  <rect x="38" y="12" width="1" height="1" fill="#c0f0c4"/>
  <rect x="40" y="13" width="1" height="1" fill="#5a9a5e"/>

  <!-- Nose bridge (between goggles) -->
  <rect x="32" y="11" width="3" height="3" fill="#8cc890"/>
  <rect x="32" y="12" width="3" height="1" fill="#7ab87e"/>
  <!-- Goggle strap -->
  <rect x="22" y="12" width="1" height="2" fill="#504e48"/>
  <rect x="44" y="12" width="1" height="2" fill="#504e48"/>

  <!-- === RESPIRATOR === -->
  <rect x="25" y="15" width="16" height="1" fill="#706e68"/>
  <rect x="24" y="16" width="18" height="1" fill="#606058"/>
  <rect x="24" y="17" width="18" height="1" fill="#606058"/>
  <rect x="25" y="18" width="16" height="1" fill="#606058"/>
  <rect x="26" y="19" width="14" height="1" fill="#504e48"/>
  <rect x="27" y="20" width="12" height="1" fill="#4a4a46"/>
  <!-- Respirator grille lines -->
  <rect x="26" y="16" width="1" height="3" fill="#4a4a46"/>
  <rect x="29" y="16" width="1" height="3" fill="#4a4a46"/>
  <rect x="32" y="16" width="1" height="3" fill="#4a4a46"/>
  <rect x="35" y="16" width="1" height="3" fill="#4a4a46"/>
  <rect x="38" y="16" width="1" height="3" fill="#4a4a46"/>
  <rect x="41" y="16" width="1" height="3" fill="#4a4a46"/>
  <!-- Respirator highlight -->
  <rect x="27" y="16" width="2" height="1" fill="#706e68"/>
  <rect x="33" y="16" width="2" height="1" fill="#706e68"/>
  <rect x="39" y="16" width="2" height="1" fill="#706e68"/>
  <!-- Filter canisters (sides) -->
  <rect x="22" y="15" width="3" height="4" fill="#9a9690"/>
  <rect x="42" y="15" width="3" height="4" fill="#9a9690"/>
  <rect x="22" y="15" width="3" height="1" fill="#c0bab0"/>
  <rect x="42" y="15" width="3" height="1" fill="#c0bab0"/>
  <rect x="22" y="18" width="3" height="1" fill="#706e68"/>
  <rect x="42" y="18" width="3" height="1" fill="#706e68"/>
  <!-- Canister rings -->
  <rect x="22" y="16" width="3" height="1" fill="#c0bab0"/>
  <rect x="42" y="16" width="3" height="1" fill="#c0bab0"/>

  <!-- === NECK === -->
  <rect x="29" y="21" width="9" height="2" fill="#5a7a5c"/>
  <rect x="30" y="21" width="3" height="1" fill="#4a5648"/>

  <!-- === BODY / TACTICAL VEST (leaning forward) === -->
  <rect x="20" y="23" width="26" height="1" fill="#5a7a5c"/>
  <rect x="19" y="24" width="28" height="1" fill="#5a7a5c"/>
  <rect x="19" y="25" width="28" height="1" fill="#4a5648"/>
  <rect x="19" y="26" width="28" height="1" fill="#4a5648"/>
  <rect x="19" y="27" width="28" height="1" fill="#4a5648"/>
  <rect x="20" y="28" width="27" height="1" fill="#4a5648"/>
  <rect x="20" y="29" width="26" height="1" fill="#4a5648"/>
  <rect x="21" y="30" width="25" height="1" fill="#3a4a3a"/>
  <rect x="21" y="31" width="24" height="1" fill="#3a4a3a"/>
  <!-- Vest shoulder pads -->
  <rect x="19" y="23" width="3" height="2" fill="#606058"/>
  <rect x="43" y="23" width="3" height="2" fill="#606058"/>
  <!-- Center zipper -->
  <rect x="33" y="23" width="2" height="9" fill="#2a322a"/>
  <rect x="33" y="24" width="1" height="1" fill="#4a4a46"/>
  <rect x="33" y="26" width="1" height="1" fill="#4a4a46"/>
  <rect x="33" y="28" width="1" height="1" fill="#4a4a46"/>
  <!-- Left chest pocket -->
  <rect x="22" y="25" width="6" height="4" fill="#2a322a"/>
  <rect x="22" y="25" width="6" height="1" fill="#3a4a3a"/>
  <rect x="24" y="26" width="2" height="1" fill="#4a5648"/>
  <!-- Right chest pocket -->
  <rect x="38" y="25" width="6" height="4" fill="#2a322a"/>
  <rect x="38" y="25" width="6" height="1" fill="#3a4a3a"/>
  <rect x="40" y="26" width="2" height="1" fill="#4a5648"/>
  <!-- Pocket flaps -->
  <rect x="22" y="25" width="6" height="1" fill="#4a5648"/>
  <rect x="38" y="25" width="6" height="1" fill="#4a5648"/>
  <!-- MOLLE webbing on vest -->
  <rect x="22" y="29" width="1" height="2" fill="#2a322a"/>
  <rect x="24" y="29" width="1" height="2" fill="#2a322a"/>
  <rect x="26" y="29" width="1" height="2" fill="#2a322a"/>
  <rect x="39" y="29" width="1" height="2" fill="#2a322a"/>
  <rect x="41" y="29" width="1" height="2" fill="#2a322a"/>
  <rect x="43" y="29" width="1" height="2" fill="#2a322a"/>

  <!-- === BELT === -->
  <rect x="21" y="32" width="24" height="2" fill="#706e68"/>
  <rect x="21" y="32" width="24" height="1" fill="#9a9690"/>
  <!-- Belt buckle -->
  <rect x="32" y="32" width="4" height="2" fill="#c0bab0"/>
  <rect x="33" y="32" width="2" height="2" fill="#9a9690"/>
  <!-- Belt pouches -->
  <rect x="23" y="33" width="4" height="1" fill="#504e48"/>
  <rect x="39" y="33" width="4" height="1" fill="#504e48"/>

  <!-- === FRONT ARM (right arm, swinging forward) === -->
  <!-- Upper arm -->
  <rect x="45" y="22" width="4" height="2" fill="#5a7a5c"/>
  <rect x="46" y="24" width="4" height="2" fill="#5a7a5c"/>
  <rect x="47" y="26" width="4" height="2" fill="#4a5648"/>
  <!-- Forearm wrap -->
  <rect x="47" y="27" width="4" height="1" fill="#606058"/>
  <!-- Forearm angled forward -->
  <rect x="48" y="28" width="4" height="2" fill="#4a5648"/>
  <rect x="49" y="30" width="4" height="2" fill="#4a5648"/>
  <!-- Glove -->
  <rect x="50" y="32" width="4" height="2" fill="#2a322a"/>
  <rect x="50" y="32" width="4" height="1" fill="#3a4a3a"/>
  <rect x="51" y="34" width="3" height="1" fill="#1a1a1c"/>

  <!-- === FRONT LEG (left leg, extended forward) === -->
  <!-- Upper thigh -->
  <rect x="30" y="34" width="7" height="2" fill="#2a322a"/>
  <rect x="33" y="36" width="7" height="2" fill="#1a1a1c"/>
  <!-- Lower leg forward -->
  <rect x="36" y="38" width="7" height="2" fill="#1a1a1c"/>
  <rect x="38" y="40" width="7" height="2" fill="#1a1a1c"/>
  <!-- Knee pad -->
  <rect x="34" y="38" width="5" height="2" fill="#4a4a46"/>
  <rect x="35" y="39" width="3" height="1" fill="#606058"/>
  <!-- Boot -->
  <rect x="40" y="42" width="8" height="2" fill="#1a1a1c"/>
  <rect x="41" y="44" width="9" height="2" fill="#121214"/>
  <rect x="42" y="46" width="9" height="1" fill="#0a0a0c"/>
  <!-- Boot laces -->
  <rect x="43" y="42" width="1" height="3" fill="#2a2a2c"/>
  <rect x="46" y="42" width="1" height="3" fill="#2a2a2c"/>
  <rect x="41" y="44" width="9" height="1" fill="#2a2a2c"/>
  <!-- Boot toe cap -->
  <rect x="48" y="46" width="3" height="1" fill="#1a1a1c"/>
  <!-- Boot sole -->
  <rect x="41" y="47" width="10" height="1" fill="#0a0a0c"/>

  <!-- Leg gap shadow (between legs, mid-stride) -->
  <rect x="29" y="37" width="5" height="4" fill="#0a0610"/>

  <!-- === SUBTLE GLOW AURA === -->
  <rect x="25" y="12" width="1" height="1" fill="#a0dca4" opacity="0.15"/>
  <rect x="41" y="12" width="1" height="1" fill="#a0dca4" opacity="0.15"/>
</svg>
