<svg xmlns="http://www.w3.org/2000/svg" width="256" height="256" viewBox="0 0 64 64" shape-rendering="crispEdges">
  <!-- 3SEC SURVIVE - HD Pixel Character: FAIL / KNOCKED DOWN -->
  <!-- 64x64 Post-apocalyptic gas mask survivor - kneeling/collapsed -->

  <!-- === HOOD (falling off, shifted right and tilted) === -->
  <!-- Hood is sliding off the back of the head -->
  <rect x="28" y="10" width="14" height="1" fill="#3a4a3a"/>
  <rect x="29" y="9" width="14" height="1" fill="#4a5648"/>
  <rect x="30" y="8" width="14" height="1" fill="#5a7a5c"/>
  <rect x="31" y="7" width="12" height="1" fill="#5a7a5c"/>
  <!-- Hood draping down the back -->
  <rect x="40" y="11" width="5" height="3" fill="#4a5648"/>
  <rect x="41" y="14" width="4" height="2" fill="#3a4a3a"/>
  <rect x="42" y="16" width="3" height="1" fill="#3a4a3a"/>
  <!-- Hood frayed edges -->
  <rect x="31" y="7" width="1" height="1" fill="#3a4a3a"/>
  <rect x="43" y="8" width="1" height="1" fill="#3a4a3a"/>

  <!-- === HEAD / MASK (slumped forward and down) === -->
  <rect x="20" y="11" width="20" height="1" fill="#8cc890"/>
  <rect x="19" y="12" width="22" height="1" fill="#8cc890"/>
  <rect x="19" y="13" width="22" height="1" fill="#8cc890"/>
  <rect x="19" y="14" width="22" height="1" fill="#7ab87e"/>
  <rect x="20" y="15" width="20" height="1" fill="#7ab87e"/>
  <!-- Head highlight -->
  <rect x="25" y="11" width="7" height="1" fill="#a0dca4"/>

  <!-- === GOGGLES (on slumped head) === -->
  <!-- Left goggle frame -->
  <rect x="20" y="12" width="9" height="1" fill="#706e68"/>
  <rect x="20" y="15" width="9" height="1" fill="#504e48"/>
  <rect x="20" y="12" width="1" height="4" fill="#706e68"/>
  <rect x="28" y="12" width="1" height="4" fill="#504e48"/>
  <!-- Left lens -->
  <rect x="21" y="13" width="7" height="2" fill="#0c140c"/>
  <!-- Left lens reflection -->
  <rect x="22" y="13" width="2" height="1" fill="#1a2a1a"/>
  <!-- Left eye glow - RED (damaged) -->
  <rect x="23" y="13" width="2" height="2" fill="#ff3b5c"/>
  <rect x="23" y="13" width="1" height="1" fill="#ff6b7f"/>
  <rect x="25" y="14" width="1" height="1" fill="#aa2040"/>
  <!-- Crack across left lens (diagonal red pixels) -->
  <rect x="21" y="13" width="1" height="1" fill="#ff3b5c" opacity="0.7"/>
  <rect x="22" y="14" width="1" height="1" fill="#ff3b5c" opacity="0.5"/>
  <rect x="26" y="13" width="1" height="1" fill="#ff3b5c" opacity="0.4"/>
  <rect x="27" y="14" width="1" height="1" fill="#ff3b5c" opacity="0.3"/>

  <!-- Right goggle frame -->
  <rect x="33" y="12" width="9" height="1" fill="#706e68"/>
  <rect x="33" y="15" width="9" height="1" fill="#504e48"/>
  <rect x="33" y="12" width="1" height="4" fill="#706e68"/>
  <rect x="41" y="12" width="1" height="4" fill="#504e48"/>
  <!-- Right lens -->
  <rect x="34" y="13" width="7" height="2" fill="#0c140c"/>
  <!-- Right lens reflection -->
  <rect x="35" y="13" width="2" height="1" fill="#1a2a1a"/>
  <!-- Right eye glow - DIM/FLICKERING -->
  <rect x="36" y="13" width="2" height="2" fill="#5a9a5e" opacity="0.4"/>
  <rect x="36" y="13" width="1" height="1" fill="#5a9a5e" opacity="0.4"/>
  <rect x="38" y="14" width="1" height="1" fill="#5a9a5e" opacity="0.2"/>

  <!-- Nose bridge (between goggles) -->
  <rect x="29" y="12" width="4" height="3" fill="#8cc890"/>
  <rect x="29" y="13" width="4" height="1" fill="#7ab87e"/>
  <!-- Goggle strap -->
  <rect x="19" y="13" width="1" height="2" fill="#504e48"/>
  <rect x="42" y="13" width="1" height="2" fill="#504e48"/>

  <!-- === RESPIRATOR (dislodged - offset 2px right) === -->
  <rect x="24" y="16" width="18" height="1" fill="#706e68"/>
  <rect x="23" y="17" width="20" height="1" fill="#606058"/>
  <rect x="23" y="18" width="20" height="1" fill="#606058"/>
  <rect x="24" y="19" width="18" height="1" fill="#606058"/>
  <rect x="25" y="20" width="16" height="1" fill="#504e48"/>
  <rect x="26" y="21" width="14" height="1" fill="#4a4a46"/>
  <!-- Respirator grille lines -->
  <rect x="25" y="17" width="1" height="3" fill="#4a4a46"/>
  <rect x="28" y="17" width="1" height="3" fill="#4a4a46"/>
  <rect x="31" y="17" width="1" height="3" fill="#4a4a46"/>
  <rect x="34" y="17" width="1" height="3" fill="#4a4a46"/>
  <rect x="37" y="17" width="1" height="3" fill="#4a4a46"/>
  <rect x="40" y="17" width="1" height="3" fill="#4a4a46"/>
  <!-- Respirator highlight -->
  <rect x="26" y="17" width="2" height="1" fill="#706e68"/>
  <rect x="32" y="17" width="2" height="1" fill="#706e68"/>
  <rect x="38" y="17" width="2" height="1" fill="#706e68"/>
  <!-- Filter canisters (sides, slightly askew) -->
  <rect x="20" y="16" width="3" height="4" fill="#9a9690"/>
  <rect x="42" y="17" width="3" height="4" fill="#9a9690"/>
  <rect x="20" y="16" width="3" height="1" fill="#c0bab0"/>
  <rect x="42" y="17" width="3" height="1" fill="#c0bab0"/>
  <rect x="20" y="19" width="3" height="1" fill="#706e68"/>
  <rect x="42" y="20" width="3" height="1" fill="#706e68"/>
  <!-- Canister rings -->
  <rect x="20" y="17" width="3" height="1" fill="#c0bab0"/>
  <rect x="42" y="18" width="3" height="1" fill="#c0bab0"/>

  <!-- === NECK (bent forward) === -->
  <rect x="26" y="22" width="10" height="1" fill="#5a7a5c"/>
  <rect x="27" y="23" width="8" height="1" fill="#4a5648"/>

  <!-- === BODY / TACTICAL VEST (hunched forward, tilted) === -->
  <rect x="18" y="24" width="26" height="1" fill="#5a7a5c"/>
  <rect x="17" y="25" width="28" height="1" fill="#5a7a5c"/>
  <rect x="16" y="26" width="29" height="1" fill="#4a5648"/>
  <rect x="16" y="27" width="29" height="1" fill="#4a5648"/>
  <rect x="16" y="28" width="29" height="1" fill="#4a5648"/>
  <rect x="17" y="29" width="28" height="1" fill="#4a5648"/>
  <rect x="17" y="30" width="27" height="1" fill="#3a4a3a"/>
  <rect x="18" y="31" width="26" height="1" fill="#3a4a3a"/>
  <!-- Vest shoulder pads -->
  <rect x="16" y="24" width="3" height="2" fill="#606058"/>
  <rect x="42" y="24" width="3" height="2" fill="#606058"/>
  <!-- Center zipper -->
  <rect x="30" y="24" width="2" height="8" fill="#2a322a"/>
  <rect x="30" y="25" width="1" height="1" fill="#4a4a46"/>
  <rect x="30" y="27" width="1" height="1" fill="#4a4a46"/>
  <rect x="30" y="29" width="1" height="1" fill="#4a4a46"/>
  <!-- Left chest pocket -->
  <rect x="19" y="26" width="6" height="4" fill="#2a322a"/>
  <rect x="19" y="26" width="6" height="1" fill="#3a4a3a"/>
  <rect x="21" y="27" width="2" height="1" fill="#4a5648"/>
  <!-- Right chest pocket -->
  <rect x="37" y="26" width="6" height="4" fill="#2a322a"/>
  <rect x="37" y="26" width="6" height="1" fill="#3a4a3a"/>
  <rect x="39" y="27" width="2" height="1" fill="#4a5648"/>
  <!-- Pocket flaps -->
  <rect x="19" y="26" width="6" height="1" fill="#4a5648"/>
  <rect x="37" y="26" width="6" height="1" fill="#4a5648"/>
  <!-- MOLLE webbing on vest -->
  <rect x="19" y="30" width="1" height="2" fill="#2a322a"/>
  <rect x="21" y="30" width="1" height="2" fill="#2a322a"/>
  <rect x="23" y="30" width="1" height="2" fill="#2a322a"/>
  <rect x="38" y="30" width="1" height="2" fill="#2a322a"/>
  <rect x="40" y="30" width="1" height="2" fill="#2a322a"/>
  <rect x="42" y="30" width="1" height="2" fill="#2a322a"/>

  <!-- === BELT === -->
  <rect x="18" y="32" width="26" height="2" fill="#706e68"/>
  <rect x="18" y="32" width="26" height="1" fill="#9a9690"/>
  <!-- Belt buckle -->
  <rect x="29" y="32" width="4" height="2" fill="#c0bab0"/>
  <rect x="30" y="32" width="2" height="2" fill="#9a9690"/>
  <!-- Belt pouches -->
  <rect x="20" y="33" width="4" height="1" fill="#504e48"/>
  <rect x="38" y="33" width="4" height="1" fill="#504e48"/>

  <!-- === LEFT ARM (bracing ground) === -->
  <!-- Upper arm angled down-forward -->
  <rect x="12" y="24" width="4" height="2" fill="#5a7a5c"/>
  <rect x="10" y="26" width="5" height="2" fill="#5a7a5c"/>
  <rect x="8" y="28" width="5" height="2" fill="#4a5648"/>
  <rect x="6" y="30" width="5" height="2" fill="#4a5648"/>
  <!-- Left forearm wrap -->
  <rect x="7" y="30" width="5" height="1" fill="#606058"/>
  <!-- Left glove (on ground, bracing) -->
  <rect x="4" y="32" width="5" height="2" fill="#2a322a"/>
  <rect x="4" y="32" width="5" height="1" fill="#3a4a3a"/>
  <rect x="3" y="34" width="6" height="1" fill="#1a1a1c"/>
  <!-- Fingers spread on ground -->
  <rect x="2" y="35" width="2" height="1" fill="#1a1a1c"/>
  <rect x="5" y="35" width="2" height="1" fill="#1a1a1c"/>
  <rect x="8" y="35" width="1" height="1" fill="#1a1a1c"/>

  <!-- === RIGHT ARM (limp, hanging) === -->
  <!-- Upper arm drooping -->
  <rect x="45" y="24" width="4" height="2" fill="#5a7a5c"/>
  <rect x="46" y="26" width="5" height="3" fill="#5a7a5c"/>
  <rect x="47" y="29" width="5" height="3" fill="#4a5648"/>
  <rect x="48" y="32" width="4" height="2" fill="#4a5648"/>
  <!-- Right forearm wrap -->
  <rect x="47" y="30" width="5" height="1" fill="#606058"/>
  <!-- Right glove (limp, dangling) -->
  <rect x="49" y="34" width="4" height="3" fill="#2a322a"/>
  <rect x="49" y="34" width="4" height="1" fill="#3a4a3a"/>
  <rect x="50" y="37" width="3" height="1" fill="#1a1a1c"/>
  <rect x="51" y="38" width="2" height="1" fill="#1a1a1c"/>

  <!-- === LEGS (kneeling) === -->
  <!-- Left leg (knee on ground, folded under) -->
  <rect x="19" y="34" width="9" height="2" fill="#2a322a"/>
  <rect x="17" y="36" width="11" height="2" fill="#1a1a1c"/>
  <rect x="15" y="38" width="12" height="2" fill="#1a1a1c"/>
  <!-- Left knee pad (on ground) -->
  <rect x="16" y="38" width="6" height="2" fill="#4a4a46"/>
  <rect x="17" y="39" width="4" height="1" fill="#606058"/>
  <!-- Left shin/foot tucked under -->
  <rect x="14" y="40" width="10" height="2" fill="#1a1a1c"/>
  <rect x="13" y="42" width="8" height="1" fill="#1a1a1c"/>

  <!-- Right leg (bent back, foot visible) -->
  <rect x="34" y="34" width="8" height="2" fill="#2a322a"/>
  <rect x="35" y="36" width="8" height="2" fill="#1a1a1c"/>
  <rect x="36" y="38" width="8" height="3" fill="#1a1a1c"/>
  <rect x="37" y="41" width="8" height="2" fill="#1a1a1c"/>
  <!-- Right knee pad -->
  <rect x="37" y="38" width="6" height="2" fill="#4a4a46"/>
  <rect x="38" y="39" width="4" height="1" fill="#606058"/>

  <!-- Leg gap shadow -->
  <rect x="28" y="34" width="6" height="6" fill="#0a0610"/>

  <!-- === BOOTS === -->
  <!-- Left boot (tucked under, partial view) -->
  <rect x="12" y="43" width="8" height="2" fill="#1a1a1c"/>
  <rect x="11" y="45" width="9" height="1" fill="#121214"/>
  <rect x="11" y="46" width="9" height="1" fill="#0a0a0c"/>
  <!-- Boot detail -->
  <rect x="14" y="43" width="1" height="3" fill="#2a2a2c"/>
  <rect x="17" y="43" width="1" height="3" fill="#2a2a2c"/>
  <rect x="11" y="45" width="9" height="1" fill="#2a2a2c"/>
  <!-- Boot sole -->
  <rect x="10" y="47" width="10" height="1" fill="#0a0a0c"/>

  <!-- Right boot -->
  <rect x="37" y="43" width="10" height="2" fill="#1a1a1c"/>
  <rect x="36" y="45" width="11" height="2" fill="#121214"/>
  <rect x="36" y="47" width="11" height="2" fill="#0a0a0c"/>
  <!-- Boot details -->
  <rect x="40" y="43" width="1" height="4" fill="#2a2a2c"/>
  <rect x="43" y="43" width="1" height="4" fill="#2a2a2c"/>
  <rect x="36" y="45" width="11" height="1" fill="#2a2a2c"/>
  <!-- Boot toe cap -->
  <rect x="44" y="47" width="3" height="1" fill="#1a1a1c"/>
  <!-- Boot sole -->
  <rect x="36" y="49" width="12" height="1" fill="#0a0a0c"/>

  <!-- === BACKPACK (shifted, visible behind) === -->
  <rect x="14" y="23" width="3" height="9" fill="#3a4a3a"/>
  <rect x="44" y="23" width="3" height="9" fill="#3a4a3a"/>
  <!-- Backpack straps -->
  <rect x="17" y="24" width="1" height="7" fill="#504e48"/>
  <rect x="44" y="24" width="1" height="7" fill="#504e48"/>
  <!-- Backpack top -->
  <rect x="15" y="22" width="2" height="1" fill="#3a4a3a"/>
  <rect x="44" y="22" width="2" height="1" fill="#3a4a3a"/>

  <!-- === DAMAGE SPARKS (red pixels scattered around) === -->
  <rect x="17" y="10" width="1" height="1" fill="#ff3b5c" opacity="0.9"/>
  <rect x="45" y="19" width="1" height="1" fill="#ff3b5c" opacity="0.6"/>
  <rect x="10" y="27" width="1" height="1" fill="#ff3b5c" opacity="0.7"/>
  <rect x="48" y="14" width="1" height="1" fill="#ff3b5c" opacity="0.4"/>

  <!-- === GROUND SHADOW === -->
  <rect x="2" y="48" width="8" height="1" fill="#0a0610" opacity="0.3"/>
  <rect x="8" y="49" width="14" height="1" fill="#0a0610" opacity="0.4"/>
  <rect x="22" y="50" width="28" height="1" fill="#0a0610" opacity="0.3"/>
</svg>
