<svg xmlns="http://www.w3.org/2000/svg" width="256" height="256" viewBox="0 0 64 64" shape-rendering="crispEdges">
  <!-- 3SEC SURVIVE - HD Pixel Character: IDLE -->
  <!-- 64x64 Post-apocalyptic gas mask survivor -->

  <!-- === HOOD === -->
  <!-- Hood top -->
  <rect x="24" y="4" width="16" height="1" fill="#3a4a3a"/>
  <rect x="22" y="5" width="20" height="1" fill="#4a5648"/>
  <rect x="21" y="6" width="22" height="1" fill="#4a5648"/>
  <rect x="20" y="7" width="24" height="1" fill="#5a7a5c"/>
  <rect x="19" y="8" width="26" height="1" fill="#5a7a5c"/>
  <rect x="19" y="9" width="26" height="1" fill="#5a7a5c"/>
  <!-- Hood shadow folds -->
  <rect x="22" y="6" width="2" height="1" fill="#3a4a3a"/>
  <rect x="38" y="6" width="2" height="1" fill="#3a4a3a"/>
  <rect x="20" y="8" width="1" height="2" fill="#4a5648"/>
  <rect x="43" y="8" width="2" height="2" fill="#4a5648"/>
  <!-- Hood frayed edges -->
  <rect x="19" y="9" width="1" height="1" fill="#3a4a3a"/>
  <rect x="44" y="9" width="1" height="1" fill="#3a4a3a"/>
  <rect x="20" y="7" width="1" height="1" fill="#4a5648"/>
  <rect x="43" y="7" width="1" height="1" fill="#4a5648"/>

  <!-- === HEAD / MASK === -->
  <rect x="21" y="10" width="22" height="1" fill="#8cc890"/>
  <rect x="20" y="11" width="24" height="1" fill="#8cc890"/>
  <rect x="20" y="12" width="24" height="1" fill="#8cc890"/>
  <rect x="20" y="13" width="24" height="1" fill="#7ab87e"/>
  <rect x="20" y="14" width="24" height="1" fill="#7ab87e"/>
  <!-- Head highlight -->
  <rect x="26" y="10" width="8" height="1" fill="#a0dca4"/>

  <!-- === GOGGLES === -->
  <!-- Left goggle frame -->
  <rect x="21" y="11" width="9" height="1" fill="#706e68"/>
  <rect x="21" y="14" width="9" height="1" fill="#504e48"/>
  <rect x="21" y="11" width="1" height="4" fill="#706e68"/>
  <rect x="29" y="11" width="1" height="4" fill="#504e48"/>
  <!-- Left lens -->
  <rect x="22" y="12" width="7" height="2" fill="#0c140c"/>
  <!-- Left lens reflection -->
  <rect x="23" y="12" width="2" height="1" fill="#1a2a1a"/>
  <!-- Left eye glow -->
  <rect x="24" y="12" width="2" height="2" fill="#a0dca4"/>
  <rect x="24" y="12" width="1" height="1" fill="#c0f0c4"/>
  <rect x="26" y="13" width="1" height="1" fill="#5a9a5e"/>

  <!-- Right goggle frame -->
  <rect x="34" y="11" width="9" height="1" fill="#706e68"/>
  <rect x="34" y="14" width="9" height="1" fill="#504e48"/>
  <rect x="34" y="11" width="1" height="4" fill="#706e68"/>
  <rect x="42" y="11" width="1" height="4" fill="#504e48"/>
  <!-- Right lens -->
  <rect x="35" y="12" width="7" height="2" fill="#0c140c"/>
  <!-- Right lens reflection -->
  <rect x="36" y="12" width="2" height="1" fill="#1a2a1a"/>
  <!-- Right eye glow -->
  <rect x="37" y="12" width="2" height="2" fill="#a0dca4"/>
  <rect x="37" y="12" width="1" height="1" fill="#c0f0c4"/>
  <rect x="39" y="13" width="1" height="1" fill="#5a9a5e"/>

  <!-- Nose bridge (between goggles) -->
  <rect x="30" y="11" width="4" height="3" fill="#8cc890"/>
  <rect x="30" y="12" width="4" height="1" fill="#7ab87e"/>
  <!-- Goggle strap -->
  <rect x="20" y="12" width="1" height="2" fill="#504e48"/>
  <rect x="43" y="12" width="1" height="2" fill="#504e48"/>

  <!-- === RESPIRATOR === -->
  <rect x="23" y="15" width="18" height="1" fill="#706e68"/>
  <rect x="22" y="16" width="20" height="1" fill="#606058"/>
  <rect x="22" y="17" width="20" height="1" fill="#606058"/>
  <rect x="23" y="18" width="18" height="1" fill="#606058"/>
  <rect x="24" y="19" width="16" height="1" fill="#504e48"/>
  <rect x="25" y="20" width="14" height="1" fill="#4a4a46"/>
  <!-- Respirator grille lines -->
  <rect x="24" y="16" width="1" height="3" fill="#4a4a46"/>
  <rect x="27" y="16" width="1" height="3" fill="#4a4a46"/>
  <rect x="30" y="16" width="1" height="3" fill="#4a4a46"/>
  <rect x="33" y="16" width="1" height="3" fill="#4a4a46"/>
  <rect x="36" y="16" width="1" height="3" fill="#4a4a46"/>
  <rect x="39" y="16" width="1" height="3" fill="#4a4a46"/>
  <!-- Respirator highlight -->
  <rect x="25" y="16" width="2" height="1" fill="#706e68"/>
  <rect x="31" y="16" width="2" height="1" fill="#706e68"/>
  <rect x="37" y="16" width="2" height="1" fill="#706e68"/>
  <!-- Filter canisters (sides) -->
  <rect x="20" y="15" width="3" height="4" fill="#9a9690"/>
  <rect x="41" y="15" width="3" height="4" fill="#9a9690"/>
  <rect x="20" y="15" width="3" height="1" fill="#c0bab0"/>
  <rect x="41" y="15" width="3" height="1" fill="#c0bab0"/>
  <rect x="20" y="18" width="3" height="1" fill="#706e68"/>
  <rect x="41" y="18" width="3" height="1" fill="#706e68"/>
  <!-- Canister rings -->
  <rect x="20" y="16" width="3" height="1" fill="#c0bab0"/>
  <rect x="41" y="16" width="3" height="1" fill="#c0bab0"/>

  <!-- === NECK === -->
  <rect x="27" y="21" width="10" height="2" fill="#5a7a5c"/>
  <rect x="28" y="21" width="3" height="1" fill="#4a5648"/>

  <!-- === BODY / TACTICAL VEST === -->
  <rect x="18" y="23" width="28" height="1" fill="#5a7a5c"/>
  <rect x="17" y="24" width="30" height="1" fill="#5a7a5c"/>
  <rect x="17" y="25" width="30" height="1" fill="#4a5648"/>
  <rect x="17" y="26" width="30" height="1" fill="#4a5648"/>
  <rect x="17" y="27" width="30" height="1" fill="#4a5648"/>
  <rect x="17" y="28" width="30" height="1" fill="#4a5648"/>
  <rect x="18" y="29" width="28" height="1" fill="#4a5648"/>
  <rect x="18" y="30" width="28" height="1" fill="#3a4a3a"/>
  <rect x="19" y="31" width="26" height="1" fill="#3a4a3a"/>
  <!-- Vest shoulder pads -->
  <rect x="17" y="23" width="3" height="2" fill="#606058"/>
  <rect x="44" y="23" width="3" height="2" fill="#606058"/>
  <!-- Center zipper -->
  <rect x="31" y="23" width="2" height="9" fill="#2a322a"/>
  <rect x="31" y="24" width="1" height="1" fill="#4a4a46"/>
  <rect x="31" y="26" width="1" height="1" fill="#4a4a46"/>
  <rect x="31" y="28" width="1" height="1" fill="#4a4a46"/>
  <!-- Left chest pocket -->
  <rect x="20" y="25" width="6" height="4" fill="#2a322a"/>
  <rect x="20" y="25" width="6" height="1" fill="#3a4a3a"/>
  <rect x="22" y="26" width="2" height="1" fill="#4a5648"/>
  <!-- Right chest pocket -->
  <rect x="38" y="25" width="6" height="4" fill="#2a322a"/>
  <rect x="38" y="25" width="6" height="1" fill="#3a4a3a"/>
  <rect x="40" y="26" width="2" height="1" fill="#4a5648"/>
  <!-- Pocket flaps -->
  <rect x="20" y="25" width="6" height="1" fill="#4a5648"/>
  <rect x="38" y="25" width="6" height="1" fill="#4a5648"/>
  <!-- MOLLE webbing on vest -->
  <rect x="20" y="29" width="1" height="2" fill="#2a322a"/>
  <rect x="22" y="29" width="1" height="2" fill="#2a322a"/>
  <rect x="24" y="29" width="1" height="2" fill="#2a322a"/>
  <rect x="39" y="29" width="1" height="2" fill="#2a322a"/>
  <rect x="41" y="29" width="1" height="2" fill="#2a322a"/>
  <rect x="43" y="29" width="1" height="2" fill="#2a322a"/>

  <!-- === BELT === -->
  <rect x="19" y="32" width="26" height="2" fill="#706e68"/>
  <rect x="19" y="32" width="26" height="1" fill="#9a9690"/>
  <!-- Belt buckle -->
  <rect x="30" y="32" width="4" height="2" fill="#c0bab0"/>
  <rect x="31" y="32" width="2" height="2" fill="#9a9690"/>
  <!-- Belt pouches -->
  <rect x="21" y="33" width="4" height="1" fill="#504e48"/>
  <rect x="39" y="33" width="4" height="1" fill="#504e48"/>

  <!-- === ARMS === -->
  <!-- Left arm -->
  <rect x="13" y="23" width="4" height="2" fill="#5a7a5c"/>
  <rect x="12" y="25" width="5" height="3" fill="#5a7a5c"/>
  <rect x="12" y="28" width="5" height="3" fill="#4a5648"/>
  <rect x="12" y="31" width="5" height="2" fill="#4a5648"/>
  <!-- Left forearm wrap -->
  <rect x="12" y="29" width="5" height="1" fill="#606058"/>
  <!-- Left glove -->
  <rect x="12" y="33" width="5" height="3" fill="#2a322a"/>
  <rect x="12" y="33" width="5" height="1" fill="#3a4a3a"/>
  <rect x="13" y="36" width="3" height="1" fill="#1a1a1c"/>

  <!-- Right arm -->
  <rect x="47" y="23" width="4" height="2" fill="#5a7a5c"/>
  <rect x="47" y="25" width="5" height="3" fill="#5a7a5c"/>
  <rect x="47" y="28" width="5" height="3" fill="#4a5648"/>
  <rect x="47" y="31" width="5" height="2" fill="#4a5648"/>
  <!-- Right forearm wrap -->
  <rect x="47" y="29" width="5" height="1" fill="#606058"/>
  <!-- Right glove -->
  <rect x="47" y="33" width="5" height="3" fill="#2a322a"/>
  <rect x="47" y="33" width="5" height="1" fill="#3a4a3a"/>
  <rect x="48" y="36" width="3" height="1" fill="#1a1a1c"/>

  <!-- === LEGS === -->
  <!-- Left leg -->
  <rect x="21" y="34" width="8" height="2" fill="#2a322a"/>
  <rect x="21" y="36" width="8" height="2" fill="#1a1a1c"/>
  <rect x="21" y="38" width="8" height="3" fill="#1a1a1c"/>
  <rect x="21" y="41" width="8" height="2" fill="#1a1a1c"/>
  <!-- Left knee pad -->
  <rect x="22" y="38" width="6" height="2" fill="#4a4a46"/>
  <rect x="23" y="39" width="4" height="1" fill="#606058"/>

  <!-- Right leg -->
  <rect x="35" y="34" width="8" height="2" fill="#2a322a"/>
  <rect x="35" y="36" width="8" height="2" fill="#1a1a1c"/>
  <rect x="35" y="38" width="8" height="3" fill="#1a1a1c"/>
  <rect x="35" y="41" width="8" height="2" fill="#1a1a1c"/>
  <!-- Right knee pad -->
  <rect x="36" y="38" width="6" height="2" fill="#4a4a46"/>
  <rect x="37" y="39" width="4" height="1" fill="#606058"/>

  <!-- Leg gap shadow -->
  <rect x="29" y="34" width="6" height="8" fill="#0a0610"/>

  <!-- === BOOTS === -->
  <!-- Left boot -->
  <rect x="19" y="43" width="10" height="2" fill="#1a1a1c"/>
  <rect x="19" y="45" width="11" height="2" fill="#121214"/>
  <rect x="19" y="47" width="11" height="2" fill="#0a0a0c"/>
  <!-- Boot details -->
  <rect x="21" y="43" width="1" height="4" fill="#2a2a2c"/>
  <rect x="24" y="43" width="1" height="4" fill="#2a2a2c"/>
  <rect x="19" y="45" width="11" height="1" fill="#2a2a2c"/>
  <!-- Boot toe cap -->
  <rect x="19" y="47" width="3" height="1" fill="#1a1a1c"/>
  <!-- Boot sole -->
  <rect x="18" y="49" width="12" height="1" fill="#0a0a0c"/>

  <!-- Right boot -->
  <rect x="35" y="43" width="10" height="2" fill="#1a1a1c"/>
  <rect x="34" y="45" width="11" height="2" fill="#121214"/>
  <rect x="34" y="47" width="11" height="2" fill="#0a0a0c"/>
  <!-- Boot details -->
  <rect x="38" y="43" width="1" height="4" fill="#2a2a2c"/>
  <rect x="41" y="43" width="1" height="4" fill="#2a2a2c"/>
  <rect x="34" y="45" width="11" height="1" fill="#2a2a2c"/>
  <!-- Boot toe cap -->
  <rect x="42" y="47" width="3" height="1" fill="#1a1a1c"/>
  <!-- Boot sole -->
  <rect x="34" y="49" width="12" height="1" fill="#0a0a0c"/>

  <!-- === BACKPACK (behind body) === -->
  <rect x="15" y="22" width="3" height="10" fill="#3a4a3a"/>
  <rect x="46" y="22" width="3" height="10" fill="#3a4a3a"/>
  <!-- Backpack straps -->
  <rect x="18" y="23" width="1" height="8" fill="#504e48"/>
  <rect x="45" y="23" width="1" height="8" fill="#504e48"/>
  <!-- Backpack top -->
  <rect x="16" y="21" width="2" height="1" fill="#3a4a3a"/>
  <rect x="46" y="21" width="2" height="1" fill="#3a4a3a"/>

  <!-- === SUBTLE GLOW AURA === -->
  <rect x="23" y="12" width="1" height="1" fill="#a0dca4" opacity="0.15"/>
  <rect x="40" y="12" width="1" height="1" fill="#a0dca4" opacity="0.15"/>
</svg>
